<svg width="24" height="24" viewBox="0 0 24 24" fill="none" xmlns="http://www.w3.org/2000/svg">
<path fill-rule="evenodd" clip-rule="evenodd" d="M8.51831 1.99989C8.56423 1.99996 8.61051 2.00004 8.65713 2.00004H15.3434C15.3901 2.00004 15.4363 1.99996 15.4822 1.99989C16.1611 1.99885 16.7635 1.99793 17.3199 2.2284C17.8763 2.45887 18.3016 2.88551 18.7809 3.36624C18.8133 3.39876 18.846 3.43153 18.879 3.4645L19.5358 4.12136C19.5688 4.15433 19.6016 4.187 19.6341 4.21942C20.1148 4.69867 20.5414 5.12401 20.7719 5.68041C21.0024 6.23682 21.0015 6.83926 21.0004 7.51807C21.0004 7.56399 21.0003 7.61026 21.0003 7.65689L21.0003 17.0658C21.0003 17.9523 21.0004 18.7162 20.9181 19.3278C20.83 19.9833 20.6313 20.6117 20.1216 21.1214C19.6119 21.631 18.9836 21.8298 18.3281 21.9179C17.7164 22.0001 16.9526 22.0001 16.0661 22H7.93447C7.04798 22.0001 6.28415 22.0001 5.67249 21.9179C5.01697 21.8298 4.38862 21.631 3.87896 21.1214C3.3693 20.6117 3.17055 19.9833 3.08242 19.3278C3.00019 18.7162 3.00023 17.9524 3.00028 17.0659L3.00028 7.65689C3.00028 7.61026 3.00021 7.56399 3.00014 7.51807C2.9991 6.83926 2.99817 6.23682 3.22864 5.68041C3.45911 5.12401 3.88576 4.69867 4.36649 4.21942C4.39901 4.187 4.43177 4.15433 4.46475 4.12136L5.1216 3.4645C5.15457 3.43153 5.18724 3.39876 5.21966 3.36624C5.69891 2.88551 6.12425 2.45887 6.68066 2.2284C7.23706 1.99793 7.83951 1.99885 8.51831 1.99989ZM8.65713 4.00004C7.75804 4.00004 7.58706 4.01774 7.44602 4.07616C7.30499 4.13458 7.17157 4.24296 6.53581 4.87872L5.87896 5.53557C5.2432 6.17133 5.13482 6.30474 5.0764 6.44578C5.01798 6.58682 5.00028 6.7578 5.00028 7.65689V17C5.00028 17.9711 5.0024 18.5988 5.06459 19.0613C5.1229 19.4951 5.21705 19.631 5.29317 19.7071C5.3693 19.7833 5.50524 19.8774 5.93898 19.9357C6.40149 19.9979 7.0292 20 8.00028 20H16.0003C16.9714 20 17.5991 19.9979 18.0616 19.9357C18.4953 19.8774 18.6313 19.7833 18.7074 19.7071C18.7835 19.631 18.8777 19.4951 18.936 19.0613C18.9982 18.5988 19.0003 17.9711 19.0003 17V7.65689C19.0003 6.75779 18.9826 6.58682 18.9242 6.44578C18.8657 6.30474 18.7574 6.17133 18.1216 5.53557L17.4647 4.87872C16.829 4.24296 16.6956 4.13458 16.5545 4.07616C16.4135 4.01774 16.2425 4.00004 15.3434 4.00004H8.65713Z" fill="#30373E"/>
<path fill-rule="evenodd" clip-rule="evenodd" d="M3.00028 7.00004C3.00028 6.44775 3.448 6.00004 4.00028 6.00004H20.0003C20.5526 6.00004 21.0003 6.44775 21.0003 7.00004C21.0003 7.55232 20.5526 8.00004 20.0003 8.00004H4.00028C3.448 8.00004 3.00028 7.55232 3.00028 7.00004Z" fill="#30373E"/>
<path fill-rule="evenodd" clip-rule="evenodd" d="M9.00028 10C9.55257 10 10.0003 10.4478 10.0003 11C10.0003 11.5305 10.211 12.0392 10.5861 12.4142C10.9611 12.7893 11.4698 13 12.0003 13C12.5307 13 13.0394 12.7893 13.4145 12.4142C13.7896 12.0392 14.0003 11.5305 14.0003 11C14.0003 10.4478 14.448 10 15.0003 10C15.5526 10 16.0003 10.4478 16.0003 11C16.0003 12.0609 15.5789 13.0783 14.8287 13.8285C14.0786 14.5786 13.0611 15 12.0003 15C10.9394 15 9.922 14.5786 9.17185 13.8285C8.42171 13.0783 8.00028 12.0609 8.00028 11C8.00028 10.4478 8.448 10 9.00028 10Z" fill="#30373E"/>
</svg>
