<svg width="70" height="70" viewBox="0 0 70 70" fill="none" xmlns="http://www.w3.org/2000/svg">
<path d="M5.01758 32.0195C5.01758 32.0332 5.01758 32.0332 5.01758 32.0195C5.00391 32.0605 4.99023 32.0742 4.99023 32.1016C4.99023 32.1016 4.99023 32.1016 4.99023 32.1152C4.97656 32.1426 4.97656 32.1699 4.97656 32.1973C4.97656 32.2109 4.97656 32.2109 4.97656 32.2246C4.97656 32.2519 4.96289 32.2656 4.96289 32.293C4.96289 32.3203 4.96289 32.3613 4.96289 32.3887C4.96289 32.416 4.96289 32.457 4.96289 32.4844C4.96289 32.5117 4.96289 32.5254 4.97656 32.5527C4.97656 32.5664 4.97656 32.5664 4.97656 32.5801C4.97656 32.6074 4.99023 32.6348 4.99023 32.6621C4.99023 32.6621 4.99023 32.6621 4.99023 32.6758C5.00391 32.7031 5.00391 32.7305 5.01758 32.7578C5.01758 32.7578 5.01758 32.7578 5.01758 32.7715C5.03125 32.7988 5.04492 32.8262 5.04492 32.8398V32.8535C5.05859 32.8809 5.07227 32.8945 5.08594 32.9219C5.08594 32.9219 5.08594 32.9355 5.09961 32.9355C5.11328 32.9492 5.12695 32.9766 5.14062 32.9902L5.1543 33.0039C5.16797 33.0312 5.19531 33.0449 5.22266 33.0723L34.3301 62.1797C34.3574 62.207 34.3848 62.2344 34.4121 62.248L34.4258 62.2617C34.4668 62.2891 34.4941 62.3164 34.5352 62.3301C34.5352 62.3301 34.5488 62.3301 34.5488 62.3437C34.5898 62.3711 34.6309 62.3848 34.6719 62.3984C34.6856 62.3984 34.6856 62.3984 34.6992 62.4121C34.7402 62.4258 34.7949 62.4394 34.8359 62.4531H34.8496C34.9043 62.4668 34.9453 62.4668 35 62.4668C35.0547 62.4668 35.0957 62.4668 35.1504 62.4531H35.1641C35.2051 62.4394 35.2598 62.4258 35.3008 62.4121C35.3145 62.4121 35.3145 62.4121 35.3281 62.3984C35.3691 62.3848 35.4102 62.3574 35.4512 62.3437C35.4512 62.3437 35.4648 62.3437 35.4648 62.3301C35.5059 62.3027 35.5469 62.2891 35.5742 62.248C35.5742 62.248 35.5742 62.248 35.5879 62.2344C35.6152 62.207 35.6426 62.1934 35.6699 62.166L64.7774 33.0586C64.8047 33.0312 64.8184 33.0176 64.8457 32.9902L64.8594 32.9766C64.8731 32.9629 64.8867 32.9355 64.9004 32.9219C64.9004 32.9219 64.9004 32.9082 64.9141 32.9082C64.9277 32.8809 64.9414 32.8672 64.9551 32.8398V32.8262C64.9688 32.7988 64.9824 32.7852 64.9824 32.7578C64.9824 32.7578 64.9824 32.7578 64.9824 32.7441C64.9961 32.7168 64.9961 32.6894 65.0098 32.6621C65.0098 32.6621 65.0098 32.6621 65.0098 32.6484C65.0235 32.6211 65.0235 32.5937 65.0235 32.5664C65.0235 32.5527 65.0235 32.5527 65.0235 32.5391C65.0235 32.5117 65.0371 32.498 65.0371 32.4707C65.0371 32.4434 65.0371 32.4023 65.0371 32.375C65.0371 32.3477 65.0371 32.3066 65.0371 32.2793C65.0371 32.252 65.0371 32.2383 65.0235 32.2109C65.0235 32.1973 65.0235 32.1973 65.0235 32.1836C65.0235 32.1562 65.0098 32.1289 65.0098 32.1016C65.0098 32.1016 65.0098 32.1016 65.0098 32.0879C64.9961 32.0605 64.9961 32.0332 64.9824 32.0059C64.9824 32.0059 64.9824 32.0059 64.9824 31.9922C64.9688 31.9648 64.9551 31.9375 64.9551 31.9238V31.9102C64.9414 31.8828 64.9277 31.8691 64.9141 31.8418C64.9141 31.8418 64.9141 31.8281 64.9004 31.8281C64.8867 31.8145 64.8731 31.7871 64.8594 31.7734L64.8457 31.7598C64.832 31.7324 64.8047 31.7187 64.7774 31.6914L52.2129 19.127C52.0352 18.9492 51.7891 18.8398 51.543 18.8398H18.457H18.4434C18.4297 18.8398 18.4023 18.8398 18.3887 18.8398C18.375 18.8398 18.3613 18.8398 18.3477 18.8398C18.334 18.8398 18.3066 18.8398 18.293 18.8535C18.2793 18.8535 18.2656 18.8535 18.252 18.8672C18.2383 18.8672 18.2109 18.8809 18.1973 18.8809C18.1836 18.8809 18.1699 18.8809 18.1563 18.8945C18.1426 18.8945 18.1152 18.9082 18.1016 18.9082C18.0879 18.9082 18.0742 18.9219 18.0605 18.9219C18.0469 18.9355 18.0332 18.9355 18.0195 18.9492C18.0059 18.9492 17.9922 18.9629 17.9785 18.9766C17.9648 18.9902 17.9512 18.9902 17.9375 19.0039C17.9238 19.0176 17.9102 19.0176 17.8965 19.0312L17.8828 19.0449L17.8691 19.0586C17.8555 19.0723 17.8418 19.0859 17.8281 19.0859C17.8145 19.0996 17.8008 19.1133 17.7871 19.1133L17.7734 19.127L5.22266 31.7187C5.19531 31.7461 5.18164 31.7598 5.1543 31.7871L5.14062 31.8008C5.12695 31.8145 5.11328 31.8418 5.09961 31.8555C5.09961 31.8555 5.09961 31.8691 5.08594 31.8691C5.07227 31.8965 5.05859 31.9102 5.04492 31.9375V31.9512C5.03125 31.9785 5.01758 32.0059 5.01758 32.0195ZM18.3613 21.2871L25.9082 31.4316H8.20313L18.3613 21.2871ZM40.6602 33.3457L34.9727 57.4219L29.0254 33.3457H40.6602ZM29.4492 31.4316L34.9727 21.7793L40.25 31.4316H29.4492ZM42.6289 33.3457H61.7969L36.709 58.4336L42.6289 33.3457ZM36.6133 20.7812H49.3145L42 30.625L36.6133 20.7812ZM27.6992 30.6523L20.3711 20.7812H33.3594L27.6992 30.6523ZM27.0566 33.3457L33.25 58.3789L8.20313 33.3457H27.0566ZM61.7969 31.4316H43.7774L51.4609 21.0957L61.7969 31.4316Z" fill="#30373E"/>
<path d="M51.981 7.83398C51.6118 7.46484 50.9966 7.46484 50.6274 7.83398L49.3833 9.07813L48.1392 7.83398C47.77 7.46484 47.1548 7.46484 46.7856 7.83398C46.4165 8.20312 46.4165 8.81836 46.7856 9.1875L48.0298 10.4316L46.7856 11.6758C46.4165 12.0449 46.4165 12.6602 46.7856 13.0293C46.9771 13.2207 47.2231 13.3164 47.4556 13.3164C47.688 13.3164 47.9478 13.2207 48.1255 13.0293L49.3696 11.7852L50.6138 13.0293C50.8052 13.2207 51.0513 13.3164 51.2837 13.3164C51.5298 13.3164 51.7759 13.2207 51.9536 13.0293C52.3227 12.6602 52.3227 12.0449 51.9536 11.6758L50.7095 10.4316L51.9536 9.1875C52.3638 8.80469 52.3638 8.20312 51.981 7.83398Z" fill="#30373E"/>
<path d="M23.9253 7.83398C23.5562 7.46484 22.9409 7.46484 22.5718 7.83398L21.3276 9.07813L20.0835 7.83398C19.7144 7.46484 19.0991 7.46484 18.73 7.83398C18.3608 8.20312 18.3608 8.81836 18.73 9.1875L19.9741 10.4316L18.73 11.6758C18.3608 12.0449 18.3608 12.6602 18.73 13.0293C18.9214 13.2207 19.1675 13.3164 19.3999 13.3164C19.6323 13.3164 19.8921 13.2207 20.0698 13.0293L21.314 11.7852L22.5581 13.0293C22.7495 13.2207 22.9956 13.3164 23.228 13.3164C23.4605 13.3164 23.7202 13.2207 23.898 13.0293C24.2671 12.6602 24.2671 12.0449 23.898 11.6758L22.6538 10.4316L23.898 9.1875C24.2944 8.80469 24.2944 8.20312 23.9253 7.83398Z" fill="#30373E"/>
<path d="M62.2207 17.459V15.6953C62.2207 15.1621 61.7969 14.7383 61.2637 14.7383C60.7305 14.7383 60.3066 15.1621 60.3066 15.6953V17.459H58.543C58.0098 17.459 57.5859 17.8828 57.5859 18.416C57.5859 18.9492 58.0098 19.373 58.543 19.373H60.3066V21.1367C60.3066 21.6699 60.7305 22.0937 61.2637 22.0937C61.7969 22.0937 62.2207 21.6699 62.2207 21.1367V19.373H63.9844C64.5176 19.373 64.9414 18.9492 64.9414 18.416C64.9414 17.8828 64.5176 17.459 63.9844 17.459H62.2207Z" fill="#30373E"/>
<path d="M6.01562 19.373H7.7793V21.1367C7.7793 21.6699 8.20312 22.0937 8.73633 22.0937C9.26953 22.0937 9.69336 21.6699 9.69336 21.1367V19.373H11.457C11.9902 19.373 12.4141 18.9492 12.4141 18.416C12.4141 17.8828 11.9902 17.459 11.457 17.459H9.69336V15.6953C9.69336 15.1621 9.26953 14.7383 8.73633 14.7383C8.20312 14.7383 7.7793 15.1621 7.7793 15.6953V17.459H6.01562C5.48242 17.459 5.05859 17.8828 5.05859 18.416C5.05859 18.9492 5.48242 19.373 6.01562 19.373Z" fill="#30373E"/>
</svg>
