<svg width="48" height="48" viewBox="0 0 48 48" fill="none" xmlns="http://www.w3.org/2000/svg">
<circle cx="24" cy="24" r="24" fill="#30373E"/>
<path d="M27.7188 25H25.375V32H22.25V25H19.7188V22.0938H22.25V19.9062C22.25 19.0729 22.4062 18.3646 22.7188 17.7812C23.0312 17.1979 23.4688 16.7604 24.0312 16.4688C24.6146 16.1562 25.2812 16 26.0312 16C26.3646 16 26.7188 16.0208 27.0938 16.0625C27.4688 16.0833 27.7604 16.1146 27.9688 16.1562L28.2812 16.1875V18.6562H27.0312C26.4479 18.6562 26.0208 18.8125 25.75 19.125C25.5 19.4167 25.375 19.7812 25.375 20.2188V22.0938H28.1562L27.7188 25Z" fill="white"/>
</svg>
