<svg width="68" height="68" viewBox="0 0 68 68" fill="none" xmlns="http://www.w3.org/2000/svg">
<path d="M53.0751 66.9759H19.8743C18.0248 66.9759 16.5205 65.4709 16.5205 63.6222V40.2967C16.5205 39.8853 16.8538 39.5527 17.2645 39.5527H55.6857C56.0971 39.5527 56.4296 39.8853 56.4296 40.2967V63.6222C56.4289 65.4709 54.9239 66.9759 53.0751 66.9759ZM18.0077 41.0407V63.6222C18.0077 64.6511 18.8446 65.488 19.8735 65.488H53.0751C54.104 65.488 54.941 64.6511 54.941 63.6222V41.0407H18.0077Z" fill="#30373E"/>
<path d="M39.9346 66.9759H33.0135C32.6028 66.9759 32.2695 66.6434 32.2695 66.232V40.2967C32.2695 39.8853 32.6028 39.5527 33.0135 39.5527H39.9346C40.346 39.5527 40.6785 39.8853 40.6785 40.2967V66.232C40.6785 66.6434 40.346 66.9759 39.9346 66.9759ZM33.7582 65.488H39.1906V41.0407H33.7582V65.488Z" fill="#30373E"/>
<path d="M6.09776 52.1681C5.9073 52.1681 5.71685 52.0952 5.57178 51.9501L2.27974 48.6581C0.971857 47.3502 0.971857 45.2225 2.27974 43.9146L25.7562 20.4381C26.3893 19.8042 27.2315 19.4553 28.128 19.4553C29.0237 19.4553 29.8659 19.8042 30.499 20.4381L33.791 23.7301C34.0819 24.021 34.0819 24.4919 33.791 24.7821L6.62374 51.9501C6.47867 52.0952 6.28821 52.1681 6.09776 52.1681ZM28.128 20.944C27.6295 20.944 27.1608 21.1382 26.8082 21.4908L3.33171 44.9673C2.60411 45.6949 2.60411 46.8793 3.33171 47.6061L6.09776 50.3722L32.2131 24.2569L29.447 21.4908C29.0944 21.1382 28.6257 20.944 28.128 20.944Z" fill="#30373E"/>
<path d="M14.5431 33.4471C14.4382 33.4471 14.3318 33.4247 14.2321 33.3786C13.9494 33.2484 13.7776 32.9553 13.8021 32.6443L14.5833 22.7437C14.7202 21.0095 15.819 19.5573 17.452 18.9554C19.0843 18.3528 20.8623 18.7434 22.0928 19.9739C23.8114 21.6917 23.8114 24.4875 22.0928 26.2061L15.0706 33.2291C14.927 33.3719 14.7373 33.4471 14.5431 33.4471ZM19.0047 20.1621C18.6609 20.1621 18.3113 20.2246 17.9661 20.3511C16.8687 20.7558 16.1583 21.6939 16.0667 22.8597L15.4441 30.7495L21.0401 25.1534C22.1777 24.0151 22.1777 22.1641 21.0401 21.0259C20.4732 20.459 19.7538 20.1621 19.0047 20.1621Z" fill="#30373E"/>
<path d="M4.93083 41.543C3.75388 41.543 2.64686 41.0847 1.81511 40.2515C0.583855 39.0217 0.194019 37.2436 0.795884 35.6106C1.39775 33.9784 2.84922 32.8788 4.58414 32.7419L14.4848 31.9607C14.795 31.9414 15.0889 32.1081 15.2191 32.3908C15.3493 32.6735 15.2898 33.0082 15.0695 33.2285L8.04654 40.2507C7.21405 41.084 6.10778 41.543 4.93083 41.543ZM12.5907 33.6034L4.70094 34.2261C3.53441 34.3184 2.59702 35.0281 2.1923 36.1262C1.78759 37.2235 2.03979 38.373 2.86708 39.1995C3.97037 40.3028 5.89203 40.3028 6.99458 39.1995L12.5907 33.6034Z" fill="#30373E"/>
<path d="M17.2333 41.031C17.0429 41.031 16.8524 40.9581 16.7073 40.8131L11.5695 35.676C11.4297 35.5361 11.3516 35.3479 11.3516 35.15C11.3516 34.9521 11.4297 34.7632 11.5695 34.624L16.4633 29.7295C16.7423 29.4505 17.2363 29.4505 17.5153 29.7295L22.6531 34.8673C22.793 35.0072 22.8711 35.1954 22.8711 35.3933C22.8711 35.5912 22.793 35.7802 22.6531 35.9193L17.7593 40.8131C17.6142 40.9581 17.4238 41.031 17.2333 41.031ZM13.1482 35.15L17.2341 39.2351L21.0759 35.3933L16.9901 31.3074L13.1482 35.15Z" fill="#30373E"/>
<path d="M56.1638 35.0733L55.8959 34.7564C54.6573 33.2908 52.9863 30.3105 52.4581 28.6239C51.3228 24.9926 52.1494 21.4856 54.4237 20.2841C55.5232 19.7023 56.7954 19.6071 58.0066 20.0163C59.1969 20.418 60.2102 21.2743 60.9147 22.4594C62.2256 22.0324 63.5521 22.0577 64.7119 22.5413C65.8903 23.0323 66.7838 23.9429 67.2272 25.1057C68.1445 27.5087 66.452 30.6906 63.2031 32.6711C61.6944 33.5906 58.473 34.7289 56.5744 35.0131L56.1638 35.0733ZM56.5105 21.2557C56.0261 21.2557 55.5508 21.371 55.1178 21.6002C53.5049 22.4527 52.9714 25.2813 53.8776 28.1805C54.3143 29.5762 55.6802 32.0558 56.7679 33.4693C58.5184 33.1241 61.1796 32.1615 62.4279 31.4004C65.0221 29.8195 66.487 27.3413 65.8353 25.6362C65.5392 24.8587 64.9366 24.2472 64.1383 23.9146C63.1674 23.5099 62.0039 23.565 60.8649 24.0701L60.196 24.3662L59.8888 23.7019C59.365 22.571 58.5273 21.7623 57.5304 21.4261C57.1934 21.3115 56.8497 21.2557 56.5105 21.2557Z" fill="#30373E"/>
<path d="M42.2391 19.8587L41.9712 19.5417C40.426 17.7131 38.3452 14.0015 37.6897 11.9027C36.2911 7.42854 37.2902 3.11728 40.0667 1.65018C41.4021 0.944908 42.9458 0.829594 44.4167 1.32507C45.912 1.82948 47.1805 2.92608 48.0435 4.44376C49.6958 3.87166 51.3705 3.88505 52.8286 4.49287C54.26 5.08952 55.3447 6.19505 55.8834 7.60635C57.0023 10.5398 54.9088 14.4396 50.907 16.8791C49.0292 18.0241 45.0163 19.4413 42.6497 19.7962L42.2391 19.8587ZM42.5984 2.51095C41.9601 2.51095 41.3329 2.66346 40.7608 2.96551C38.6547 4.07848 37.9442 7.72985 39.1092 11.4586C39.6717 13.2575 41.4535 16.4788 42.8432 18.2554C45.0594 17.8373 48.5218 16.5912 50.1325 15.6099C53.4677 13.5766 55.3425 10.365 54.4929 8.13828C54.1023 7.11161 53.3078 6.3059 52.2565 5.86771C50.9866 5.33801 49.4719 5.40794 47.9921 6.06411L47.3233 6.36021L47.0161 5.69585C46.3361 4.22727 45.2439 3.17605 43.9413 2.73637C43.4964 2.58535 43.044 2.51095 42.5984 2.51095Z" fill="#30373E"/>
<path d="M44.3177 35.8553L43.907 35.7943C42.5805 35.5949 40.3293 34.7996 39.2759 34.1568C36.9153 32.718 35.7413 30.4698 36.4205 28.688C36.7479 27.8302 37.4055 27.1591 38.2737 26.7976C39.0675 26.4665 39.9677 26.4278 40.862 26.6815C41.3686 25.9018 42.0694 25.3364 42.8856 25.0612C43.7768 24.7599 44.7127 24.8313 45.5251 25.2598C47.211 26.1503 47.8121 28.6151 46.9863 31.2539C46.618 32.4331 45.4507 34.5154 44.5855 35.5391L44.3177 35.8553ZM39.7044 28.005C39.4023 28.005 39.1122 28.0601 38.8466 28.1709C38.36 28.3733 37.9918 28.746 37.8117 29.2184C37.4048 30.2838 38.3675 31.861 40.0511 32.8862C40.8397 33.3668 42.5463 33.9909 43.7114 34.2446C44.4196 33.2857 45.2908 31.6906 45.5668 30.809C46.1545 28.9275 45.8376 27.1071 44.8303 26.5751C44.3832 26.3393 43.8631 26.3014 43.3617 26.4702C42.739 26.68 42.2138 27.1904 41.882 27.9068L41.5747 28.5712L40.9059 28.2751C40.4997 28.0958 40.0912 28.005 39.7044 28.005Z" fill="#30373E"/>
</svg>
