<svg width="20" height="18" viewBox="0 0 20 18" fill="none" xmlns="http://www.w3.org/2000/svg">
<path d="M5.2784 1.07828e-07C3.94209 1.07828e-07 2.60579 0.542714 1.53675 1.62814C-0.512249 3.799 -0.512249 7.23618 1.53675 9.40703L9.46548 17.8191C9.55457 18 9.73274 18 10 18C10.1782 18 10.3563 17.9095 10.5345 17.8191C13.2071 15.0151 15.7906 12.2111 18.4633 9.40703C20.5122 7.23618 20.5122 3.799 18.4633 1.62814C16.4143 -0.542714 13.029 -0.542714 10.98 1.62814L10 2.62312L9.02004 1.62814C7.951 0.542714 6.6147 1.07828e-07 5.2784 1.07828e-07ZM5.2784 1.35678C6.25835 1.35678 7.23831 1.80905 8.04009 2.62312L9.46548 4.1608C9.55457 4.34171 9.73274 4.34171 10 4.34171C10.1782 4.34171 10.3563 4.25126 10.5345 4.1608L11.9599 2.62312C13.4744 0.994975 15.8797 0.994975 17.3942 2.62312C18.9087 4.25126 18.9087 6.87437 17.3942 8.50251C14.8998 11.1256 12.4053 13.7487 10 16.3719L2.5167 8.50251C1.00223 6.87437 1.00223 4.25126 2.5167 2.62312C3.31849 1.80905 4.29844 1.35678 5.2784 1.35678Z" fill="#30373E"/>
</svg>
