<svg width="48" height="48" viewBox="0 0 48 48" fill="none" xmlns="http://www.w3.org/2000/svg">
<circle cx="24" cy="24" r="24" fill="#30373E"/>
<path d="M20.125 30H17.2188V20.6562H20.125V30ZM18.6875 19.375C18.2292 19.375 17.8333 19.2083 17.5 18.875C17.1667 18.5417 17 18.1458 17 17.6875C17 17.2292 17.1667 16.8333 17.5 16.5C17.8333 16.1667 18.2292 16 18.6875 16C19.1458 16 19.5417 16.1667 19.875 16.5C20.2083 16.8333 20.375 17.2292 20.375 17.6875C20.375 17.9792 20.2917 18.2604 20.125 18.5312C19.9792 18.7812 19.7708 18.9896 19.5 19.1562C19.25 19.3021 18.9792 19.375 18.6875 19.375ZM31 30H28.0938V25.4375C28.0938 25.0833 28.0833 24.8021 28.0625 24.5938C28.0417 24.3646 27.9896 24.1146 27.9062 23.8438C27.8229 23.5521 27.6667 23.3333 27.4375 23.1875C27.2292 23.0417 26.9479 22.9688 26.5938 22.9688C25.9062 22.9688 25.4375 23.1875 25.1875 23.625C24.9583 24.0625 24.8438 24.6458 24.8438 25.375V30H21.9375V20.6562H24.75V21.9375H24.7812C24.9896 21.5208 25.3333 21.1667 25.8125 20.875C26.2917 20.5625 26.8646 20.4062 27.5312 20.4062C28.2396 20.4062 28.8229 20.5208 29.2812 20.75C29.7604 20.9583 30.1146 21.2812 30.3438 21.7188C30.5938 22.1354 30.7604 22.5938 30.8438 23.0938C30.9479 23.5938 31 24.1875 31 24.875V30Z" fill="white"/>
</svg>
