<svg width="73" height="52" viewBox="0 0 73 52" fill="none" xmlns="http://www.w3.org/2000/svg">
<path d="M0.472656 35.2193C0.472656 32.559 1.16663 29.9566 2.55458 27.412V27.2386L18.516 0H25.8028L14.3522 19.6048L16.2606 19.4313C20.5401 19.4313 24.1835 20.9928 27.1907 24.1157C30.3136 27.1229 31.8751 30.8241 31.8751 35.2193C31.8751 39.6145 30.3136 43.3735 27.1907 46.4964C24.1835 49.5036 20.5401 51.0072 16.2606 51.0072C11.8654 51.0072 8.10639 49.5036 4.9835 46.4964C1.97627 43.3735 0.472656 39.6145 0.472656 35.2193ZM56.6847 19.4313C61.0799 19.4313 64.7811 20.9928 67.7883 24.1157C70.9112 27.1229 72.4727 30.8241 72.4727 35.2193C72.4727 39.4988 70.9112 43.2 67.7883 46.3229C64.7811 49.4458 61.0799 51.0072 56.6847 51.0072C52.4052 51.0072 48.704 49.4458 45.5811 46.3229C42.4582 43.2 40.8968 39.4988 40.8968 35.2193C40.8968 32.4434 41.6486 29.841 43.1522 27.412V27.2386L58.9401 0H66.4004L54.9498 19.6048L56.6847 19.4313Z" fill="#DAA14C"/>
</svg>
