<svg width="72" height="63" viewBox="0 0 72 63" fill="none" xmlns="http://www.w3.org/2000/svg">
<path d="M53.422 41.8929C43.1783 41.8929 34.8438 33.5584 34.8438 23.3146C34.8438 13.0709 43.1783 4.73633 53.422 4.73633C63.6658 4.73633 72.0003 13.0709 72.0003 23.3146C72.0003 33.5584 63.6658 41.8929 53.422 41.8929ZM53.422 5.92042C43.83 5.92042 36.0278 13.7226 36.0278 23.3146C36.0278 32.9066 43.83 40.7088 53.422 40.7088C63.0141 40.7088 70.8162 32.9066 70.8162 23.3146C70.8162 13.7226 63.0141 5.92042 53.422 5.92042ZM53.422 38.2764C45.1701 38.2764 38.4603 31.5665 38.4603 23.3146C38.4603 15.0627 45.1701 8.35285 53.422 8.35285C61.6739 8.35285 68.3838 15.0627 68.3838 23.3146C68.3838 31.5665 61.6739 38.2764 53.422 38.2764ZM53.422 9.54612C45.831 9.54612 39.6444 15.7236 39.6444 23.3238C39.6444 30.924 45.8218 37.1014 53.422 37.1014C61.0131 37.1014 67.1997 30.924 67.1997 23.3238C67.1997 15.7236 61.0131 9.54612 53.422 9.54612Z" fill="#30373E"/>
<path d="M18.5783 62.1143C8.33452 62.1143 0 53.7798 0 43.536C0 33.2923 8.33452 24.9578 18.5783 24.9578C28.822 24.9578 37.1566 33.2923 37.1566 43.536C37.1566 53.7798 28.822 62.1143 18.5783 62.1143ZM18.5783 26.1419C8.98623 26.1419 1.18409 33.944 1.18409 43.536C1.18409 53.1281 8.98623 60.9302 18.5783 60.9302C28.1703 60.9302 35.9725 53.1281 35.9725 43.536C35.9725 33.944 28.1703 26.1419 18.5783 26.1419ZM18.5783 58.4978C10.3264 58.4978 3.61652 51.788 3.61652 43.536C3.61652 35.2841 10.3264 28.5743 18.5783 28.5743C26.8302 28.5743 33.54 35.2841 33.54 43.536C33.54 51.788 26.8302 58.4978 18.5783 58.4978ZM18.5783 29.7676C10.9873 29.7676 4.80061 35.945 4.80061 43.5452C4.80061 51.1362 10.9781 57.3229 18.5783 57.3229C26.1693 57.3229 32.3559 51.1454 32.3559 43.5452C32.3559 35.945 26.1785 29.7676 18.5783 29.7676Z" fill="#30373E"/>
<path d="M27.8034 18.1102H9.36279C9.13332 18.1102 8.9222 17.9725 8.83041 17.7706C8.72944 17.5594 8.76616 17.3116 8.91302 17.1372L11.9696 13.5207C12.0798 13.3922 12.245 13.3096 12.4194 13.3096H25.0864C25.27 13.3096 25.4444 13.4014 25.5637 13.5482L28.2807 17.1647C28.4184 17.3391 28.4367 17.587 28.3358 17.7889C28.2256 17.9817 28.0237 18.1102 27.8034 18.1102ZM10.6295 16.9261H26.6193L24.7835 14.4937H12.6856L10.6295 16.9261Z" fill="#30373E"/>
<path d="M21.2953 26.1417H15.6961C15.5125 26.1417 15.3473 26.0591 15.228 25.9123L8.89445 17.8806C8.75676 17.7062 8.72922 17.4584 8.83019 17.2565C8.93116 17.0545 9.1331 16.926 9.36257 16.926H27.8032C28.0326 16.926 28.2438 17.0545 28.3355 17.2656C28.4273 17.4768 28.409 17.7154 28.2621 17.8898L21.7542 25.9214C21.6441 26.0591 21.4697 26.1417 21.2953 26.1417ZM15.9806 24.9576H21.0107L26.5548 18.1101H10.5834L15.9806 24.9576Z" fill="#30373E"/>
<path d="M15.2465 18.11C15.2373 18.11 15.2373 18.11 15.2281 18.11C15.0537 18.1009 14.8885 18.0183 14.7783 17.8806L11.9512 14.2641C11.7493 14.007 11.7952 13.6307 12.0522 13.4288C12.3092 13.2268 12.6855 13.2727 12.8875 13.5297L15.274 16.5863L17.9726 13.5022C18.0828 13.3829 18.2296 13.3094 18.3949 13.3003C18.5509 13.2727 18.7161 13.3553 18.8354 13.4655L22.0481 16.6322L24.6366 13.5114C24.8477 13.2635 25.2148 13.2268 25.4719 13.4288C25.7197 13.6399 25.7564 14.007 25.5545 14.2641L22.5529 17.8806C22.4428 18.0091 22.2959 18.0825 22.1307 18.0917C21.9655 18.11 21.8003 18.0366 21.6809 17.9265L18.4499 14.7505L15.6962 17.8989C15.5769 18.0366 15.4117 18.11 15.2465 18.11Z" fill="#30373E"/>
<path d="M17.5596 26.1417C17.3026 26.1417 17.0639 25.9765 16.9905 25.7103L14.6682 17.6787C14.5764 17.3666 14.76 17.0361 15.0721 16.9443C15.3842 16.8525 15.7146 17.0361 15.8064 17.3482L18.1287 25.3798C18.2205 25.6919 18.0369 26.0224 17.7248 26.1141C17.6697 26.1325 17.6147 26.1417 17.5596 26.1417Z" fill="#30373E"/>
<path d="M19.3128 26.1416C19.2486 26.1416 19.1843 26.1324 19.1201 26.1141C18.808 26.0039 18.6428 25.6735 18.7529 25.3614L21.4791 17.3298C21.58 17.0177 21.9197 16.8525 22.2317 16.9626C22.5438 17.0728 22.709 17.4032 22.5989 17.7153L19.8727 25.7469C19.7901 25.9856 19.5607 26.1416 19.3128 26.1416Z" fill="#30373E"/>
<path d="M7.80235 14.0714C7.67384 14.0714 7.54533 14.0346 7.44436 13.952L4.13993 11.4003C3.88292 11.1983 3.83702 10.8312 4.02978 10.565C4.23172 10.308 4.59888 10.2621 4.85589 10.4548L8.16033 13.0066C8.41734 13.2085 8.46323 13.5757 8.27047 13.8419C8.15115 13.9887 7.97675 14.0714 7.80235 14.0714Z" fill="#30373E"/>
<path d="M10.464 12.0152C10.2712 12.0152 10.0785 11.9234 9.96832 11.7399L6.83829 6.90253C6.66389 6.62716 6.73732 6.26 7.01269 6.0856C7.28806 5.9112 7.65522 5.98463 7.82962 6.26L10.9597 11.0973C11.1341 11.3727 11.0606 11.7399 10.7853 11.9143C10.6843 11.9877 10.5741 12.0152 10.464 12.0152Z" fill="#30373E"/>
<path d="M18.5791 10.2346C18.2486 10.2346 17.9824 9.96838 17.9824 9.63794V0.596634C17.9916 0.266191 18.2578 0 18.5791 0C18.9095 0 19.1757 0.266191 19.1757 0.596634V9.64712C19.1757 9.96838 18.9095 10.2346 18.5791 10.2346Z" fill="#30373E"/>
<path d="M14.6223 10.8496C14.3561 10.8496 14.1174 10.666 14.0532 10.3999L12.2174 3.04748C12.1347 2.72622 12.3275 2.40495 12.6488 2.33152C12.97 2.25809 13.2913 2.45085 13.3647 2.76293L15.2005 10.1153C15.2831 10.4366 15.0904 10.7578 14.7691 10.8313C14.714 10.8496 14.6681 10.8496 14.6223 10.8496Z" fill="#30373E"/>
<path d="M29.3542 14.0714C29.1798 14.0714 29.0054 13.9888 28.8861 13.8419C28.6841 13.5849 28.73 13.2085 28.9962 13.0066L32.3007 10.4548C32.5577 10.2529 32.934 10.308 33.1268 10.565C33.3287 10.822 33.2828 11.1983 33.0166 11.4003L29.7122 13.952C29.6112 14.0255 29.4827 14.0714 29.3542 14.0714Z" fill="#30373E"/>
<path d="M26.6925 12.0153C26.5824 12.0153 26.4722 11.9878 26.3712 11.9235C26.0959 11.7491 26.0133 11.382 26.1968 11.1066L29.3269 6.26928C29.5013 5.99391 29.8684 5.92048 30.1438 6.09488C30.4192 6.26928 30.5018 6.63644 30.3182 6.91181L27.1882 11.7491C27.078 11.9144 26.8853 12.0153 26.6925 12.0153Z" fill="#30373E"/>
<path d="M22.5349 10.8496C22.489 10.8496 22.4431 10.8404 22.388 10.8313C22.0668 10.7487 21.874 10.4274 21.9566 10.1153L23.7924 2.76293C23.875 2.45085 24.1871 2.25809 24.5084 2.33152C24.8296 2.41413 25.0224 2.7354 24.9398 3.04748L23.104 10.3999C23.0489 10.6752 22.8011 10.8496 22.5349 10.8496Z" fill="#30373E"/>
</svg>
