<svg width="48" height="48" viewBox="0 0 48 48" fill="none" xmlns="http://www.w3.org/2000/svg">
<circle cx="24" cy="24" r="24" fill="#30373E"/>
<path d="M30.3438 20.75C30.3646 20.8333 30.375 20.9688 30.375 21.1562C30.375 22.2604 30.1667 23.3646 29.75 24.4688C29.3333 25.5521 28.7396 26.5521 27.9688 27.4688C27.2188 28.3646 26.2396 29.0938 25.0312 29.6562C23.8229 30.2188 22.4896 30.5 21.0312 30.5C19.1979 30.5 17.5208 30.0104 16 29.0312C16.2292 29.0521 16.4896 29.0625 16.7812 29.0625C18.3021 29.0625 19.6667 28.5938 20.875 27.6562C20.1458 27.6562 19.5 27.4479 18.9375 27.0312C18.3958 26.5938 18.0208 26.0521 17.8125 25.4062C18.0208 25.4271 18.2188 25.4375 18.4062 25.4375C18.6979 25.4375 18.9896 25.4062 19.2812 25.3438C18.7812 25.2396 18.3333 25.0312 17.9375 24.7188C17.5417 24.4062 17.2292 24.0312 17 23.5938C16.7708 23.1354 16.6562 22.6458 16.6562 22.125V22.0625C17.1146 22.3333 17.6042 22.4792 18.125 22.5C17.1458 21.8333 16.6562 20.9167 16.6562 19.75C16.6562 19.1667 16.8125 18.6146 17.125 18.0938C17.9375 19.1146 18.9271 19.9271 20.0938 20.5312C21.2812 21.1354 22.5417 21.4688 23.875 21.5312C23.8333 21.2812 23.8125 21.0312 23.8125 20.7812C23.8125 19.8854 24.125 19.1146 24.75 18.4688C25.3958 17.8229 26.1667 17.5 27.0625 17.5C28.0208 17.5 28.8229 17.8438 29.4688 18.5312C30.2188 18.3854 30.9167 18.125 31.5625 17.75C31.3125 18.5208 30.8333 19.125 30.125 19.5625C30.75 19.4792 31.375 19.3021 32 19.0312C31.5417 19.6979 30.9896 20.2708 30.3438 20.75Z" fill="white"/>
</svg>

